<?xml version="1.0" encoding="UTF-8"?>
<svg id="Layer_1" data-name="Layer 1" xmlns="http://www.w3.org/2000/svg" xmlns:xlink="http://www.w3.org/1999/xlink" viewBox="0 0 1080 1080">
  <defs>
    <style>
      .cls-1 {
        fill: #fff;
      }

      .cls-2 {
        fill: url(#linear-gradient);
      }
    </style>
    <linearGradient id="linear-gradient" x1="22.56" y1="542.12" x2="1055.44" y2="542.12" gradientUnits="userSpaceOnUse">
      <stop offset="0" stop-color="#4d3c2a"/>
      <stop offset=".97" stop-color="#84674d"/>
    </linearGradient>
  </defs>
  <rect class="cls-2" x="22.56" y="25.68" width="1032.88" height="1032.88" rx="173.46" ry="173.46"/>
  <path class="cls-1" d="m833.38,578.66c-18.5-25.56-48.65-43.01-90.46-52.33v-4.51c30.68-5.11,55.27-20.3,73.76-45.57,18.5-25.26,27.75-57.59,27.75-97,0-58.04-21.14-100.38-63.39-127-42.26-26.62-110.16-39.93-203.69-39.93h-205.27v589.75c0,11.7-9.49,21.19-21.19,21.19s-21.19-9.49-21.19-21.19V249.28c0-20.44-16.57-37.01-37.01-37.01h-32.4c-23.98,0-43.43,28.87-43.43,64.48,0,7.54.88,14.77,2.48,21.49,5.96-25.04,22.04-42.99,40.95-42.99v590.7c0,14.36,11.64,26,26,26h43.4v-.06h165.41c9.29,0,16.82-7.53,16.82-16.82-24.77-29.9-29.12-82.78-9.29-120.64,2.79-5.32,5.91-10.04,9.29-14.2v-393.33h73.54c40,0,69.25,5.49,87.75,16.47,18.5,10.98,27.75,29.1,27.75,54.36,0,27.07-8.5,46.47-25.49,58.2-8.99,6.2-20.95,10.73-35.78,13.65v.02h-54.85v118.04h54.85c50.75,8.57,76.16,34.88,76.16,78.98,0,30.38-9.18,52.94-27.52,67.67-14.55,11.69-47.24,20.02-78.1,22.84-4.78.44-8.68-3.89-7.65-8.57,1.81-8.22,5.36-16.2,10.73-23.39,9.33-12.48,22.49-20.37,36.59-23.25-36.78-16.15-81.3-5.36-106.55,28.43-29.38,39.31-21.58,94.81,17.44,123.98,14.84,11.1,32.07,16.76,49.33,17.38l.03.18h8.71c74.59,0,133.61-16.84,177.08-50.53,43.46-33.68,65.19-80.6,65.19-140.76,0-42.41-9.25-76.39-27.74-101.96Z"/>
</svg>